<svg  style="position:absolute;width:0;height:0;visibility:hidden">
    <symbol xmlns="http://www.w3.org/2000/svg" viewBox="0 0 32 32" id="icon-interactiveClose">
        <g clip-path="url(#icon-interactiveClose_clip0)">
            <path fill-rule="evenodd" clip-rule="evenodd" d="M5.667 6.667C4.747 6.667 4 7.413 4 8.334v12.952c0 .92.746 1.667 1.667 1.667H6.1a2.333 2.333 0 012.333 2.333v.123l4.626-2.226c.316-.151.662-.23 1.012-.23h2.546a1 1 0 110 2H14.07c-.05 0-.1.011-.145.033L7.866 27.9a1 1 0 01-1.433-.9v-1.715a.333.333 0 00-.333-.333h-.433A3.667 3.667 0 012 21.286V8.334a3.667 3.667 0 013.667-3.667h20a3.667 3.667 0 013.666 3.667v4.038a1 1 0 01-2 0V8.334c0-.92-.746-1.667-1.666-1.667h-20zm1 3.667a1 1 0 011-1h4.666a1 1 0 110 2H7.667a1 1 0 01-1-1zm1 3a1 1 0 100 2h8.666a1 1 0 000-2H7.667zm11 7.666c0-.92.746-1.666 1.666-1.666h1V18A3.333 3.333 0 1128 18v1.334h1c.92 0 1.667.746 1.667 1.666v4.667c0 .92-.747 1.667-1.667 1.667h-8.667c-.92 0-1.666-.747-1.666-1.667V21zM26 19.334V18a1.333 1.333 0 10-2.667 0v1.334H26zm-3.667 2h6.334v4h-8v-4h1.666z"></path>
        </g>
        <defs></defs>
    </symbol>
    <symbol xmlns="http://www.w3.org/2000/svg" viewBox="0 0 32 32" id="icon-goodComment">
        <path fill-rule="evenodd" clip-rule="evenodd" d="M4 8.334c0-.92.746-1.667 1.667-1.667h20c.92 0 1.666.746 1.666 1.667v4.038a1 1 0 002 0V8.334a3.667 3.667 0 00-3.666-3.667h-20A3.667 3.667 0 002 8.334v12.952a3.667 3.667 0 003.667 3.667H6.1c.184 0 .333.149.333.333V27a1 1 0 001.434.901l6.06-2.915a.333.333 0 01.144-.033h2.546a1 1 0 100-2H14.07c-.35 0-.696.079-1.012.23L8.433 25.41v-.123A2.333 2.333 0 006.1 22.953h-.433c-.92 0-1.667-.747-1.667-1.667V8.334zm3.667 1a1 1 0 000 2h4.666a1 1 0 000-2H7.667zm-1 5a1 1 0 011-1h8.666a1 1 0 110 2H7.667a1 1 0 01-1-1zm15.903 7.768L20.102 18h7.796l-2.468 4.102c-.157.26-.24.556-.24.86v4.055l-2.381-.664v-3.392c0-.303-.083-.6-.239-.86zM19.512 16c-1.296 0-2.096 1.416-1.428 2.526l2.725 4.528v3.552c0 .748.498 1.405 1.219 1.606l3.049.85a1.667 1.667 0 002.114-1.606v-4.402l2.724-4.528c.669-1.11-.131-2.526-1.428-2.526h-8.975z"></path>
    </symbol>
    <symbol xmlns="http://www.w3.org/2000/svg" viewBox="0 0 32 32" id="icon-largeFile"><g clip-path="url(#icon-largeFile_clip0)" fill-rule="evenodd" clip-rule="evenodd">
        <path d="M10.334 11.333a1 1 0 011-1h9.333a1 1 0 110 2h-9.334a1 1 0 01-1-1zM10.334 16a1 1 0 011-1h9.333a1 1 0 110 2h-9.334a1 1 0 01-1-1zM10.334 20.667a1 1 0 011-1h5.333a1 1 0 110 2h-5.334a1 1 0 01-1-1z"></path><path d="M5.333 6.334A3.667 3.667 0 019 2.667h14a3.667 3.667 0 013.667 3.667v15.413c0 .958-.375 1.878-1.045 2.563l-3.83 3.92a3.666 3.666 0 01-2.623 1.104H9.001a3.667 3.667 0 01-3.667-3.667V6.334zM9 4.667c-.92 0-1.667.746-1.667 1.667v19.333c0 .92.747 1.667 1.668 1.667h10.168c.449 0 .879-.181 1.192-.502l3.831-3.92c.304-.311.475-.73.475-1.165V6.334c0-.92-.746-1.667-1.667-1.667H9z"></path><path d="M26.334 22a1 1 0 01-1 1H22c-.92 0-1.666.746-1.666 1.667V28a1 1 0 11-2 0v-3.333A3.667 3.667 0 0122 21h3.334a1 1 0 011 1z"></path></g>
    <defs></defs>
    </symbol>
    <symbol xmlns="http://www.w3.org/2000/svg" viewBox="0 0 32 32" id="icon-incentive">
        <g clip-path="url(#icon-incentive_clip0)"><path fill-rule="evenodd" clip-rule="evenodd" d="M16.02 4.142a.416.416 0 01.626 0c.915.953 2.315 1.221 3.505.632l.261-.13L18.98 7.35c-.349.658-.974 1.03-1.616 1.038a29.534 29.534 0 00-1.297.042 11.905 11.905 0 00-1.827.129l-2.01-3.931.28.14c1.19.594 2.593.329 3.51-.625zm-3.784 4.89l-2.03-3.97c-.434-.848-.169-1.946.694-2.451a1.734 1.734 0 011.656-.057l.847.423c.385.192.847.12 1.177-.221a2.415 2.415 0 013.51 0c.328.343.79.416 1.174.226l.866-.43c.939-.464 1.996.005 2.383.902a1.875 1.875 0 01-.063 1.617l-1.703 3.214c-.669 1.263-1.94 2.086-3.361 2.101a27.443 27.443 0 00-3.4.248c-2.295.474-4.372 1.723-5.993 3.375-2.096 2.136-3.327 4.839-3.327 7.186 0 2.241 1.123 3.827 3.094 4.908 2.025 1.11 4.918 1.657 8.24 1.657s6.215-.547 8.24-1.657c1.97-1.08 3.093-2.667 3.093-4.908 0-1.48-.553-3.257-1.558-4.99-1-1.724-2.405-3.332-4.016-4.486a1 1 0 111.164-1.626c1.864 1.335 3.455 3.164 4.582 5.109 1.123 1.936 1.828 4.059 1.828 5.993 0 3.098-1.638 5.295-4.131 6.662-2.44 1.337-5.713 1.903-9.202 1.903-3.49 0-6.763-.566-9.202-1.903-2.493-1.367-4.131-3.564-4.131-6.662 0-2.991 1.53-6.172 3.898-8.586 1.542-1.572 3.482-2.863 5.671-3.576zm.43 8.968a1 1 0 100 2H15v1h-2.334a1 1 0 100 2H15v.667a1 1 0 002 0V23h2.333a1 1 0 100-2H17v-1h2.333a1 1 0 100-2h-1.057l1.848-2.388a1 1 0 10-1.582-1.224L16 17.674l-2.543-3.286a1 1 0 00-1.581 1.224L13.724 18h-1.058z"></path></g>
    <defs></defs>
    </symbol>
    <symbol xmlns="http://www.w3.org/2000/svg" viewBox="0 0 32 32" id="icon-multipleArc">
        <g clip-path="url(#icon-multipleArc_clip0)"><path fill-rule="evenodd" clip-rule="evenodd" d="M15.489 2.807a1 1 0 011.022 0l12.333 7.334a1 1 0 01-.035 1.739l-12.334 6.667a1 1 0 01-.95 0L3.19 11.88a1 1 0 01-.036-1.74L15.49 2.808zM5.693 10.96L16 16.53l10.307-5.571L16 4.83 5.693 10.96zm-2.886 4.197a1 1 0 011.37-.348L16 21.838l11.822-7.03a1 1 0 011.022 1.719L16.511 23.86a1 1 0 01-1.022 0L3.156 16.527a1 1 0 01-.349-1.37zm1.37 4.985a1 1 0 00-1.021 1.719l12.333 7.333a1 1 0 001.022 0l12.333-7.333a1 1 0 00-1.022-1.72L16 27.17 4.178 20.14z"></path></g>
    <defs></defs>
    </symbol>
    <symbol xmlns="http://www.w3.org/2000/svg" viewBox="0 0 32 32" id="icon-copyrightProtection">
        <g clip-path="url(#icon-copyrightProtection_clip0)"><path fill-rule="evenodd" clip-rule="evenodd" d="M17 3.667a1 1 0 10-2 0v1.041c-6.16.508-11 5.668-11 11.959a1 1 0 001 1h9.667v7.667a4 4 0 108 0v-2.037a1 1 0 10-2 0v2.037a2 2 0 01-4 0v-7.667H27a1 1 0 001-1c0-6.29-4.84-11.45-11-11.959V3.667zm-1 3c-5.185 0-9.449 3.947-9.95 9h19.9c-.501-5.053-4.765-9-9.95-9z"></path></g>
    <defs></defs>
    </symbol>
    <symbol xmlns="http://www.w3.org/2000/svg" viewBox="0 0 32 32" id="icon-arcReserve">
        <g clip-path="url(#icon-arcReserve_clip0)"><path fill-rule="evenodd" clip-rule="evenodd" d="M17.667 4c0 .051-.003.102-.007.152C21.837 4.932 25 8.596 25 13v4.437c0 .396.177.772.482 1.025l.575.476c2.605 2.16 1.079 6.395-2.305 6.395H8.248c-3.384 0-4.91-4.235-2.305-6.395l.575-.476c.305-.253.482-.629.482-1.025V13c0-4.404 3.163-8.069 7.34-8.848A1.667 1.667 0 1117.666 4zM16 6a7 7 0 00-7 7v4.437c0 .992-.442 1.932-1.206 2.565l-.575.477c-1.163.963-.481 2.854 1.03 2.854h15.503c1.51 0 2.192-1.89 1.029-2.854l-.575-.477A3.332 3.332 0 0123 17.437V13a7 7 0 00-7-7zm-2.063 20.649a1 1 0 10-1.873.702C12.653 28.92 14.214 30 16 30s3.348-1.078 3.937-2.65a1 1 0 10-1.873-.701c-.285.76-1.08 1.35-2.064 1.35s-1.778-.59-2.063-1.35z"></path></g>
    <defs></defs>
    </symbol>
    <symbol xmlns="http://www.w3.org/2000/svg" viewBox="0 0 32 32" id="icon-avStaff">
        <g clip-path="url(#icon-avStaff_clip0)"><path fill-rule="evenodd" clip-rule="evenodd" d="M11.333 10A3.333 3.333 0 1118 10a3.333 3.333 0 01-6.667 0zm3.334-5.333a5.333 5.333 0 100 10.667 5.333 5.333 0 000-10.667zm8 1.667a1 1 0 100 2 2 2 0 010 4 1 1 0 100 2 4 4 0 000-8zm.412 9.414a1 1 0 011.31-.532 7.016 7.016 0 014.004 4.507c.179.618.274 1.27.274 1.944a1 1 0 11-2 0 5 5 0 00-.195-1.39 5.015 5.015 0 00-2.86-3.219 1 1 0 01-.533-1.31zM6 27.334a8.667 8.667 0 1117.333 0 1 1 0 002 0c0-5.891-4.775-10.667-10.666-10.667S4 21.443 4 27.334a1 1 0 002 0z"></path></g>
    <defs></defs>
    </symbol>
    <symbol xmlns="http://www.w3.org/2000/svg" viewBox="0 0 32 32" id="icon-lottery">
        <path fill-rule="evenodd" clip-rule="evenodd" d="M13.743 3.664a1 1 0 10-1.486 1.338l1.498 1.664H6.665A4 4 0 006 14.611V25a3.667 3.667 0 003.666 3.666h12.667A3.667 3.667 0 0026 25V14.61a4.001 4.001 0 00-.667-7.945h-7.088l1.498-1.664a1 1 0 10-1.486-1.338L16 6.171l-2.257-2.507zm2.253 5.002h9.338a2 2 0 010 4H17v-1.333a1 1 0 10-2 0v1.333H6.666a2 2 0 110-4h9.33zm8.004 6h-7V20a1 1 0 11-2 0v-5.334H8V25c0 .92.746 1.666 1.666 1.666h12.667c.92 0 1.667-.746 1.667-1.666V14.666z"></path>
    </symbol>
</svg>